<?xml version="1.0" standalone="no"?>
<!DOCTYPE svg PUBLIC "-//W3C//DTD SVG 20010904//EN"
 "http://www.w3.org/TR/2001/REC-SVG-20010904/DTD/svg10.dtd">
<svg version="1.0" xmlns="http://www.w3.org/2000/svg"
 width="460.000000pt" height="460.000000pt" viewBox="0 0 460.000000 460.000000"
 preserveAspectRatio="xMidYMid meet">
<metadata>
Created by potrace 1.14, written by Peter Selinger 2001-2017
</metadata>
<g transform="translate(0.000000,460.000000) scale(0.100000,-0.100000)"
fill="#000000" stroke="none">
<path d="M2938 2537 c-12 -5 -32 -10 -43 -12 -41 -6 -50 -11 -86 -56 -42 -53
-59 -102 -59 -174 1 -66 17 -108 73 -193 54 -80 62 -126 24 -136 -18 -4 -27
-19 -41 -68 -10 -35 -26 -85 -37 -113 -47 -125 -59 -203 -70 -465 -6 -140 -7
-357 -4 -481 9 -269 2 -365 -26 -380 -18 -9 -19 -7 -13 15 6 24 -23 66 -46 66
-16 0 -12 -50 5 -56 8 -4 15 -15 15 -26 0 -17 5 -20 30 -16 27 4 30 2 30 -24
0 -16 -8 -37 -18 -48 -15 -16 -24 -17 -56 -10 -30 6 -45 5 -60 -6 -47 -33 -78
-8 -51 42 23 45 20 55 -15 38 -28 -15 -30 -19 -30 -74 0 -32 -3 -61 -8 -64 -4
-2 -27 1 -50 7 -46 12 -52 34 -8 29 18 -2 25 1 21 7 -3 6 -15 11 -25 11 -26 0
-54 43 -45 70 3 11 2 20 -4 20 -5 0 -11 12 -13 28 -2 19 -9 28 -26 30 -28 4
-43 -26 -19 -40 17 -9 23 -34 10 -40 -5 -1 -21 -22 -37 -45 -16 -24 -32 -43
-37 -43 -4 0 -16 16 -25 35 -20 43 -34 45 -34 5 0 -33 -11 -38 -33 -15 -13 13
-18 12 -41 -6 -14 -11 -26 -29 -26 -40 0 -23 -21 -24 -60 -4 -28 14 -30 14
-42 -5 -13 -21 -43 -27 -52 -11 -3 5 -36 12 -73 16 -36 4 -74 12 -83 17 -23
15 -71 2 -64 -16 3 -8 1 -17 -5 -21 -6 -3 -11 -19 -11 -36 0 -31 -3 -32 -35
-20 -13 5 -26 2 -39 -11 -26 -24 -35 -23 -46 7 -6 16 -15 23 -24 19 -10 -4
-17 2 -21 19 -4 14 -13 28 -21 31 -8 3 -14 13 -14 23 -1 16 -2 16 -13 3 -26
-33 -91 -10 -101 35 -11 53 -19 65 -42 65 -16 0 -24 -6 -24 -17 0 -15 -2 -15
-19 1 -25 23 -38 15 -52 -34 -9 -28 -18 -40 -31 -40 -22 0 -24 -28 -2 -37 13
-5 13 -7 2 -14 -10 -7 -10 -9 1 -9 11 0 9 -4 -5 -15 -25 -19 -34 -19 -34 0 0
8 -6 15 -14 15 -14 0 -28 -23 -30 -49 -1 -18 -63 -19 -91 -3 -17 10 -18 13 -5
22 8 5 10 10 5 10 -6 0 -15 15 -20 33 -7 22 -17 33 -33 35 -18 3 -23 -1 -21
-15 4 -23 -10 -63 -21 -63 -5 0 -10 9 -12 20 -2 12 -7 20 -12 20 -12 -2 -26
21 -26 45 0 11 -11 43 -25 70 -24 49 -24 50 -25 18 0 -26 -4 -33 -20 -33 -23
0 -25 -17 -5 -44 20 -26 19 -82 0 -90 -8 -3 -15 -12 -15 -19 0 -9 -11 -14 -30
-13 -17 1 -30 6 -30 14 0 7 5 10 10 7 6 -3 15 -3 20 0 16 10 -8 45 -30 45 -11
0 -20 5 -20 10 0 6 -4 10 -10 10 -16 0 -12 -42 6 -62 16 -17 14 -18 -44 -16
-45 1 -63 6 -67 17 -6 14 -8 14 -19 -2 -12 -15 -16 -13 -42 25 -16 24 -32 45
-35 48 -3 3 -9 12 -13 20 -3 8 -4 -2 -1 -23 6 -35 4 -38 -24 -43 -17 -4 -31
-14 -34 -25 -9 -35 -97 -10 -97 27 0 8 -11 14 -26 14 -23 0 -26 -3 -21 -27 3
-16 -1 -32 -12 -43 -19 -19 -23 -19 -76 4 -22 10 -65 27 -95 39 -43 17 -55 27
-55 44 0 12 -3 25 -7 29 -12 11 -10 62 2 69 13 8 3 25 -16 25 -12 0 -14 -34
-14 -210 l0 -210 2300 0 2300 0 0 150 c0 133 -2 153 -19 171 -18 20 -18 20
-26 -13 -6 -29 -8 -31 -15 -13 l-9 20 -2 -20 c-1 -11 -5 3 -9 30 -4 28 -11 59
-15 70 -5 14 -1 12 17 -8 21 -26 26 -28 51 -16 32 15 35 35 6 42 -12 3 -19 9
-16 14 3 4 -12 9 -34 11 -37 2 -38 1 -50 -40 -6 -24 -11 -53 -11 -66 0 -16 -6
-22 -17 -20 -12 2 -17 19 -21 68 -3 39 -8 60 -13 52 -5 -6 -5 -32 -2 -56 5
-34 4 -44 -9 -49 -8 -3 -18 -2 -21 3 -7 12 -45 13 -45 2 0 -4 9 -13 20 -20 11
-7 20 -19 20 -27 0 -18 -17 -20 -23 -2 -3 9 -7 9 -19 -1 -13 -11 -19 -8 -37
15 l-20 28 -25 -30 c-24 -30 -24 -30 -45 -11 -13 12 -19 26 -15 38 4 13 0 18
-13 18 -10 0 -24 10 -32 22 l-14 22 -17 -21 c-16 -21 -17 -21 -29 -1 -10 16
-19 18 -59 13 -69 -10 -82 -15 -82 -32 0 -9 7 -25 17 -35 9 -10 11 -18 5 -18
-6 0 -17 -3 -25 -6 -10 -3 -17 2 -20 13 -4 16 -5 16 -6 1 -1 -11 -9 -18 -21
-18 -11 0 -29 -6 -40 -12 -16 -10 -24 -10 -41 0 -22 14 -59 7 -59 -11 0 -7 -5
-4 -11 5 -12 22 -32 23 -49 3 -11 -14 -14 -13 -27 5 -8 11 -21 20 -30 20 -9 0
-24 7 -34 16 -17 15 -18 14 -17 -15 1 -42 -20 -65 -29 -33 -5 23 -6 22 -21 -9
-19 -38 -16 -44 -42 101 -34 190 -50 299 -60 420 -31 364 -61 633 -91 805 -17
100 -101 245 -143 245 -7 0 -24 12 -38 28 l-26 27 18 50 c16 48 18 50 61 55
l44 5 6 70 c4 41 2 75 -3 83 -7 8 -7 17 2 27 6 8 8 20 4 27 -4 6 -8 33 -8 58
-1 39 -7 53 -44 97 -39 45 -43 55 -37 86 6 31 3 37 -27 60 -18 13 -44 28 -58
32 -46 14 -138 21 -162 12z m-638 -2177 c0 -5 -4 -10 -9 -10 -6 0 -13 5 -16
10 -3 6 1 10 9 10 9 0 16 -4 16 -10z m320 -30 c0 -5 -7 -7 -15 -4 -8 4 -15 8
-15 10 0 2 7 4 15 4 8 0 15 -4 15 -10z"/>
<path d="M2435 641 c-6 -29 3 -121 12 -121 2 0 13 5 24 10 23 13 25 30 4 30
-14 0 -21 42 -16 87 3 26 -18 21 -24 -6z"/>
<path d="M2200 631 c0 -12 6 -21 15 -21 8 0 15 4 15 9 0 5 -7 14 -15 21 -13
10 -15 9 -15 -9z"/>
<path d="M4560 460 c0 -5 10 -10 23 -10 18 0 19 2 7 10 -19 13 -30 13 -30 0z"/>
<path d="M2012 428 c5 -15 48 -18 48 -3 0 6 -11 11 -26 13 -18 3 -25 0 -22
-10z"/>
<path d="M1136 371 c-3 -22 -2 -50 3 -63 8 -21 8 -22 14 -3 6 22 2 93 -5 101
-3 2 -8 -13 -12 -35z"/>
<path d="M1535 370 c-3 -5 1 -10 10 -10 9 0 13 5 10 10 -3 6 -8 10 -10 10 -2
0 -7 -4 -10 -10z"/>
</g>
</svg>
